<svg width="100" height="100" viewBox="0 0 100 100" fill="none" xmlns="http://www.w3.org/2000/svg">
<rect width="100" height="100" rx="50" fill="#F0B90B"/>
<path d="M27.1045 50.0001L27.1405 63.2213L38.3745 69.8318V77.5722L20.566 67.1275V46.1339L27.1045 50.0001ZM27.1045 36.779V44.4833L20.562 40.6131V32.9088L27.1045 29.0386L33.679 32.9088L27.1045 36.779ZM43.066 32.9088L49.6085 29.0386L56.183 32.9088L49.6085 36.779L43.066 32.9088Z" fill="white"/>
<path d="M31.832 60.4809V52.7405L38.3745 56.6107V64.315L31.832 60.4809ZM43.066 72.6043L49.6085 76.4745L56.183 72.6043V80.3086L49.6085 84.1788L43.066 80.3086V72.6043ZM65.566 32.9088L72.1085 29.0386L78.683 32.9088V40.6131L72.1085 44.4833V36.779L65.566 32.9088ZM72.1085 63.2213L72.1445 50.0001L78.687 46.1299V67.1235L60.8785 77.5682V69.8278L72.1085 63.2213Z" fill="white"/>
<path d="M67.417 60.4809L60.8745 64.315V56.6107L67.417 52.7405V60.4809Z" fill="white"/>
<path d="M67.417 39.5194L67.453 47.2598L56.187 53.8704V67.1236L49.6445 70.9577L43.1021 67.1236V53.8704L31.836 47.2598V39.5194L38.4065 35.6493L49.6045 42.2919L60.8705 35.6493L67.445 39.5194H67.417ZM31.832 26.3023L49.6085 15.8215L67.417 26.3023L60.8745 30.1725L49.6085 23.5299L38.3745 30.1725L31.832 26.3023Z" fill="white"/>
</svg>
