<svg width="16" height="16" viewBox="0 0 16 16" fill="none" xmlns="http://www.w3.org/2000/svg">
<g opacity="0.5" clip-path="url(#clip0_251_2078)">
<path fill-rule="evenodd" clip-rule="evenodd" d="M15.6047 10.6352C15.6076 10.6266 15.5954 10.6217 15.5916 10.6299C14.2595 13.5205 11.5947 15.5232 8.16394 15.5232C4.52092 15.5232 1.10767 12.7 1.10767 8.38207C1.10767 4.66207 3.963 1.57301 7.27778 1.57301C10.0674 1.57301 12.0038 3.30016 12.0038 4.5291C12.0038 5.09386 11.6428 5.49237 11.0849 5.49237C9.80494 5.49237 9.31266 3.16732 6.88394 3.16732C4.42241 3.16732 2.32201 5.55879 2.32201 8.38207C2.32201 12.0357 5.17734 14.4272 8.03266 14.4272C9.14878 14.4272 9.76811 14.1301 9.94694 14.0288C9.95439 14.0246 9.94955 14.0132 9.9415 14.0157C9.76367 14.0724 9.20472 14.2279 8.42644 14.2279C4.9147 14.2279 3.50347 11.471 3.50347 9.67741C3.50347 8.31563 4.35679 7.75102 5.04608 7.75102C6.88394 7.75102 6.62144 11.7368 11.1506 11.7368C13.5136 11.7368 15.7125 10.1092 15.7125 6.88741C15.7125 3.23374 12.2992 0.0119629 8.16394 0.0119629C3.83174 0.0119629 0.287109 3.56596 0.287109 7.98352C0.287109 12.4342 3.963 15.9882 8.16394 15.9882C11.8516 15.9882 14.6146 13.5361 15.6047 10.6352Z" fill="white"/>
</g>
<defs>
<clipPath id="clip0_251_2078">
<rect width="16" height="16" fill="white"/>
</clipPath>
</defs>
</svg>
