<svg width="24" height="24" viewBox="0 0 24 24" fill="none" xmlns="http://www.w3.org/2000/svg">
<path d="M19 7.49992H11.372C11.2167 7.06123 10.9293 6.68145 10.5493 6.41284C10.1693 6.14423 9.71536 6 9.25 6C8.78464 6 8.33072 6.14423 7.95071 6.41284C7.57069 6.68145 7.28327 7.06123 7.128 7.49992H5V8.99992H7.128C7.28281 9.43907 7.57006 9.81937 7.95013 10.0884C8.3302 10.3574 8.78436 10.5018 9.25 10.5018C9.71564 10.5018 10.1698 10.3574 10.5499 10.0884C10.9299 9.81937 11.2172 9.43907 11.372 8.99992H19V7.49992ZM19 14.9999H16.872C16.7167 14.5612 16.4293 14.1814 16.0493 13.9128C15.6693 13.6442 15.2154 13.5 14.75 13.5C14.2846 13.5 13.8307 13.6442 13.4507 13.9128C13.0707 14.1814 12.7833 14.5612 12.628 14.9999H5V16.4999H12.628C12.7833 16.9386 13.0707 17.3184 13.4507 17.587C13.8307 17.8556 14.2846 17.9998 14.75 17.9998C15.2154 17.9998 15.6693 17.8556 16.0493 17.587C16.4293 17.3184 16.7167 16.9386 16.872 16.4999H19V14.9999Z" fill="white" fill-opacity="0.5"/>
</svg>
