<svg width="100" height="100" viewBox="0 0 100 100" fill="none" xmlns="http://www.w3.org/2000/svg">
<g clip-path="url(#clip0_296_1918)">
<rect width="100" height="100" rx="50" fill="#F0B90B"/>
<path d="M50 100C77.6142 100 100 77.6142 100 50C100 22.3858 77.6142 0 50 0C22.3858 0 0 22.3858 0 50C0 77.6142 22.3858 100 50 100Z" fill="url(#paint0_linear_296_1918)"/>
<path d="M59.7405 54.6336H86.5998C87.6317 54.6336 87.8404 53.2272 86.9005 52.7968L59.7418 40.4275V13.4645C59.7418 12.4573 58.3963 12.1268 57.9322 13.0199L46.7672 34.5177L34.394 28.836C33.2105 28.3577 32.4833 29.3208 32.8851 30.1492L40.2637 45.369H13.4044C12.3712 45.369 12.1638 46.7755 13.1036 47.2046L40.2611 59.5738V86.5381C40.2611 87.544 41.6079 87.8746 42.072 86.9814L53.237 65.4836L65.6101 71.1666C66.7937 71.6436 67.5209 70.6805 67.1191 69.8522L59.7405 54.6336Z" fill="white"/>
</g>
<defs>
<linearGradient id="paint0_linear_296_1918" x1="106.764" y1="44.0746" x2="-3.36726" y2="42.1846" gradientUnits="userSpaceOnUse">
<stop stop-color="#FFCD4D"/>
<stop offset="1" stop-color="#FA43BD"/>
</linearGradient>
<clipPath id="clip0_296_1918">
<rect width="100" height="100" rx="50" fill="white"/>
</clipPath>
</defs>
</svg>
