<svg width="100" height="100" viewBox="0 0 100 100" fill="none" xmlns="http://www.w3.org/2000/svg">
<rect width="100" height="100" rx="50" fill="#50AF95"/>
<path fill-rule="evenodd" clip-rule="evenodd" d="M56.1816 52.2899C55.8265 52.3165 53.9921 52.426 49.9003 52.426C46.6457 52.426 44.335 52.3283 43.5243 52.2899C30.9469 51.7366 21.559 49.5472 21.559 46.9258C21.559 44.3044 30.9469 42.1179 43.5243 41.5557V50.1093C44.3468 50.1685 46.7019 50.3075 49.9565 50.3075C53.862 50.3075 55.8177 50.1448 56.1697 50.1123V41.5617C68.7205 42.1208 78.0877 44.3103 78.0877 46.9258C78.0877 49.5412 68.7235 51.7307 56.1697 52.2869L56.1816 52.2899ZM56.1816 40.677V33.0229H73.697V21.3508H26.0088V33.0229H43.5213V40.674C29.2871 41.3279 18.5825 44.1475 18.5825 47.5264C18.5825 50.9052 29.2871 53.7219 43.5213 54.3787V78.9063H56.1786V54.3698C70.3803 53.716 81.0671 50.8993 81.0671 47.5234C81.0671 44.1475 70.3892 41.3309 56.1786 40.674L56.1816 40.677Z" fill="white"/>
</svg>
